<svg width="50" height="65" viewBox="0 0 50 65" fill="none" xmlns="http://www.w3.org/2000/svg">
<g filter="url(#filter0_d_407_27)">
<mask id="path-1-inside-1_407_27" fill="white">
<path fill-rule="evenodd" clip-rule="evenodd" d="M28.7563 0.722928C29.384 -0.0528648 30.6422 0.489685 30.5265 1.48625L28.0688 22.6647L44.6306 24.7855C45.4109 24.8854 45.7858 25.8068 45.2937 26.4151L21.1839 56.2158C20.5563 56.9916 19.2981 56.4491 19.4137 55.4525L21.8715 34.2741L5.30962 32.1533C4.52932 32.0534 4.15443 31.132 4.64658 30.5237L28.7563 0.722928Z"/>
</mask>
<path fill-rule="evenodd" clip-rule="evenodd" d="M28.7563 0.722928C29.384 -0.0528648 30.6422 0.489685 30.5265 1.48625L28.0688 22.6647L44.6306 24.7855C45.4109 24.8854 45.7858 25.8068 45.2937 26.4151L21.1839 56.2158C20.5563 56.9916 19.2981 56.4491 19.4137 55.4525L21.8715 34.2741L5.30962 32.1533C4.52932 32.0534 4.15443 31.132 4.64658 30.5237L28.7563 0.722928Z" fill="url(#paint0_linear_407_27)" shape-rendering="crispEdges"/>
<path d="M30.5265 1.48625L29.0365 1.31333L29.0365 1.31333L30.5265 1.48625ZM28.7563 0.722928L27.5902 -0.220524L27.5902 -0.220523L28.7563 0.722928ZM28.0688 22.6647L26.5788 22.4918L26.4079 23.9643L27.8783 24.1526L28.0688 22.6647ZM44.6306 24.7855L44.8211 23.2976L44.8211 23.2976L44.6306 24.7855ZM45.2937 26.4151L44.1275 25.4716L44.1275 25.4716L45.2937 26.4151ZM21.1839 56.2158L20.0178 55.2724L20.0178 55.2724L21.1839 56.2158ZM19.4137 55.4525L17.9237 55.2796L17.9237 55.2796L19.4137 55.4525ZM21.8715 34.2741L23.3615 34.447L23.5323 32.9745L22.062 32.7862L21.8715 34.2741ZM5.30962 32.1533L5.50014 30.6655L5.50014 30.6655L5.30962 32.1533ZM4.64658 30.5237L3.48043 29.5802L3.48043 29.5802L4.64658 30.5237ZM32.0165 1.65916C32.2977 -0.763732 29.2043 -2.21568 27.5902 -0.220524L29.9225 1.66638C29.8611 1.74229 29.7532 1.81542 29.6204 1.84313C29.5012 1.868 29.4 1.84915 29.3262 1.81736C29.2524 1.78553 29.1739 1.72694 29.114 1.63092C29.0473 1.52391 29.026 1.40436 29.0365 1.31333L32.0165 1.65916ZM29.5588 22.8376L32.0165 1.65916L29.0365 1.31333L26.5788 22.4918L29.5588 22.8376ZM44.8211 23.2976L28.2593 21.1769L27.8783 24.1526L44.4401 26.2733L44.8211 23.2976ZM46.4598 27.3585C47.7029 25.822 46.7467 23.5442 44.8211 23.2976L44.4401 26.2733C44.0752 26.2266 43.8687 25.7916 44.1275 25.4716L46.4598 27.3585ZM22.3501 57.1593L46.4598 27.3585L44.1275 25.4716L20.0178 55.2724L22.3501 57.1593ZM17.9237 55.2796C17.6425 57.7025 20.7359 59.1544 22.3501 57.1593L20.0178 55.2724C20.0792 55.1965 20.187 55.1233 20.3198 55.0956C20.439 55.0708 20.5403 55.0896 20.614 55.1214C20.6878 55.1532 20.7664 55.2118 20.8262 55.3078C20.8929 55.4148 20.9143 55.5344 20.9037 55.6254L17.9237 55.2796ZM20.3815 34.1011L17.9237 55.2796L20.9037 55.6254L23.3615 34.447L20.3815 34.1011ZM5.1191 33.6412L21.6809 35.7619L22.062 32.7862L5.50014 30.6655L5.1191 33.6412ZM3.48043 29.5802C2.23732 31.1168 3.19357 33.3946 5.1191 33.6412L5.50014 30.6655C5.86506 30.7122 6.07155 31.1472 5.81273 31.4671L3.48043 29.5802ZM27.5902 -0.220523L3.48043 29.5802L5.81273 31.4671L29.9225 1.66638L27.5902 -0.220523Z" fill="url(#paint1_linear_407_27)" mask="url(#path-1-inside-1_407_27)"/>
</g>
<defs>
<filter id="filter0_d_407_27" x="0.42511" y="0.354538" width="49.09" height="64.2297" filterUnits="userSpaceOnUse" color-interpolation-filters="sRGB">
<feFlood flood-opacity="0" result="BackgroundImageFix"/>
<feColorMatrix in="SourceAlpha" type="matrix" values="0 0 0 0 0 0 0 0 0 0 0 0 0 0 0 0 0 0 127 0" result="hardAlpha"/>
<feOffset dy="4"/>
<feGaussianBlur stdDeviation="2"/>
<feComposite in2="hardAlpha" operator="out"/>
<feColorMatrix type="matrix" values="0 0 0 0 0 0 0 0 0 0 0 0 0 0 0 0 0 0 0.25 0"/>
<feBlend mode="normal" in2="BackgroundImageFix" result="effect1_dropShadow_407_27"/>
<feBlend mode="normal" in="SourceGraphic" in2="effect1_dropShadow_407_27" result="shape"/>
</filter>
<linearGradient id="paint0_linear_407_27" x1="47" y1="3.5" x2="6" y2="54" gradientUnits="userSpaceOnUse">
<stop offset="0.44237" stop-color="#45A38C"/>
<stop offset="0.731818" stop-color="#2FA588" stop-opacity="0.36"/>
</linearGradient>
<linearGradient id="paint1_linear_407_27" x1="28" y1="-2" x2="17.5" y2="62" gradientUnits="userSpaceOnUse">
<stop offset="0.166667" stop-color="#329D83" stop-opacity="0.78"/>
<stop offset="1" stop-color="#6B9A8F" stop-opacity="0.15"/>
</linearGradient>
</defs>
</svg>
