<svg width="174" height="63" viewBox="0 0 174 63" fill="none" xmlns="http://www.w3.org/2000/svg">
<path d="M80.5036 37.488C79.9276 37.712 79.4796 37.824 79.1596 37.824C78.1996 37.824 77.6636 37.688 77.5516 37.416C75.9516 33.304 74.8956 30.656 74.3836 29.472C74.3356 29.904 74.2076 30.904 73.9996 32.472C73.5676 35.544 73.3516 38.096 73.3516 40.128C73.3516 40.624 73.3836 41.288 73.4476 42.12C72.3276 42.12 71.5676 41.992 71.1676 41.736C70.7836 41.464 70.5916 41.088 70.5916 40.608C70.5916 40.448 70.8556 38.272 71.3836 34.08C71.9276 29.888 72.1996 26.968 72.1996 25.32V25.2C71.7356 24.448 71.2476 23.832 70.7356 23.352C71.3276 22.936 72.0396 22.728 72.8716 22.728C73.9276 22.728 74.7436 23.224 75.3196 24.216C75.8956 25.192 77.0236 27.888 78.7036 32.304L79.8076 35.136C79.9036 34.976 80.0476 34.76 80.2396 34.488C84.1436 28.712 86.1516 24.792 86.2636 22.728C86.2636 22.744 86.4556 22.768 86.8396 22.8C87.2236 22.816 87.6316 22.896 88.0636 23.04C88.5116 23.168 88.8316 23.376 89.0236 23.664C89.2316 23.936 89.3596 24.208 89.4076 24.48C89.4556 24.736 89.4796 25.184 89.4796 25.824C89.4796 26.448 89.2156 28.568 88.6876 32.184C88.1596 35.8 87.8956 38.336 87.8956 39.792C87.8956 41.232 88.0076 42.216 88.2316 42.744C86.8716 42.392 85.9436 41.928 85.4476 41.352C84.9516 40.76 84.7036 39.944 84.7036 38.904C84.7036 38.296 84.8636 36.8 85.1836 34.416C85.5196 32.032 85.7516 30.128 85.8796 28.704C85.2396 29.808 84.3276 31.32 83.1436 33.24C81.9756 35.16 81.2716 36.304 81.0316 36.672C80.7916 37.024 80.6156 37.296 80.5036 37.488ZM92.9778 37.464C92.9778 38.216 93.1138 38.832 93.3858 39.312C93.6738 39.776 94.0738 40.008 94.5858 40.008C95.3378 40.008 96.0498 39.568 96.7218 38.688C97.4098 37.808 97.9538 36.68 98.3538 35.304C98.7698 33.928 98.9778 32.624 98.9778 31.392C98.9778 30.144 98.9298 29.136 98.8338 28.368C99.3138 28.336 99.6498 28.32 99.8418 28.32C100.658 28.32 101.274 28.472 101.69 28.776C102.106 29.08 102.314 29.624 102.314 30.408C102.314 30.712 102.122 31.952 101.738 34.128C101.354 36.288 101.162 38.024 101.162 39.336C101.162 40.632 101.41 41.784 101.906 42.792C100.706 42.584 99.8258 42.144 99.2658 41.472C98.7058 40.784 98.4258 39.8 98.4258 38.52C98.4258 38.296 98.4578 37.864 98.5218 37.224C98.0898 38.744 97.3218 39.968 96.2178 40.896C95.1138 41.824 94.0258 42.288 92.9538 42.288C91.8978 42.288 91.0418 41.896 90.3858 41.112C89.7458 40.312 89.4258 39.184 89.4258 37.728C89.4258 36.272 89.6818 34.864 90.1938 33.504C90.7218 32.128 91.5058 30.968 92.5458 30.024C93.5858 29.064 94.7458 28.584 96.0258 28.584C96.7618 28.584 97.5138 28.76 98.2818 29.112C96.6658 29.688 95.3778 30.824 94.4178 32.52C93.4578 34.2 92.9778 35.848 92.9778 37.464ZM111.86 28.152C112.804 28.152 113.476 28.448 113.876 29.04C114.292 29.616 114.5 30.408 114.5 31.416C114.5 32.408 114.34 33.808 114.02 35.616C113.716 37.424 113.564 38.744 113.564 39.576C113.564 40.392 113.668 40.992 113.876 41.376C114.084 41.744 114.436 42.064 114.932 42.336C114.724 42.352 114.428 42.36 114.044 42.36C112.7 42.36 111.74 42.152 111.164 41.736C110.604 41.32 110.324 40.592 110.324 39.552C110.324 38.96 110.484 37.808 110.804 36.096C111.124 34.368 111.284 33.08 111.284 32.232C111.284 31.176 110.964 30.648 110.324 30.648C109.956 30.648 109.54 30.864 109.076 31.296C108.612 31.728 108.164 32.32 107.732 33.072C107.3 33.808 106.94 34.76 106.652 35.928C106.364 37.096 106.22 38.264 106.22 39.432C106.22 40.584 106.268 41.44 106.364 42C105.852 42.032 105.516 42.048 105.356 42.048C104.444 42.048 103.788 41.888 103.388 41.568C102.988 41.248 102.788 40.72 102.788 39.984C102.788 39.664 102.956 38.432 103.292 36.288C103.628 34.144 103.796 32.44 103.796 31.176C103.796 29.896 103.66 28.72 103.388 27.648C104.556 28.016 105.372 28.544 105.836 29.232C106.3 29.904 106.532 30.68 106.532 31.56C106.532 32.424 106.436 33.432 106.244 34.584C106.772 32.792 107.604 31.272 108.74 30.024C109.876 28.776 110.916 28.152 111.86 28.152ZM119.445 23.256C121.173 23.544 123.245 23.688 125.661 23.688C128.077 23.688 130.605 23.4 133.245 22.824C132.973 24.856 131.941 25.968 130.149 26.16C129.589 26.24 128.725 26.32 127.557 26.4C127.525 26.864 127.261 28.896 126.765 32.496C126.269 36.08 126.021 38.552 126.021 39.912C126.021 41.272 126.133 42.216 126.357 42.744C124.997 42.392 124.069 41.928 123.573 41.352C123.077 40.76 122.829 40.032 122.829 39.168C122.829 38.304 123.029 36.432 123.429 33.552C123.845 30.656 124.093 28.328 124.173 26.568C122.877 26.632 121.605 26.664 120.357 26.664C119.621 26.664 119.253 26.008 119.253 24.696C119.285 24.072 119.349 23.592 119.445 23.256ZM137.829 29.976C136.789 29.976 135.861 30.68 135.045 32.088C134.229 33.48 133.821 34.872 133.821 36.264C133.821 39.176 134.573 40.632 136.077 40.632C137.149 40.632 138.021 39.936 138.693 38.544C139.365 37.136 139.701 35.56 139.701 33.816C139.701 31.256 139.077 29.976 137.829 29.976ZM139.317 28.224C140.277 28.224 141.093 28.696 141.765 29.64C142.437 30.584 142.773 31.848 142.773 33.432C142.773 35.208 142.413 36.84 141.693 38.328C140.893 40.008 139.757 41.168 138.285 41.808C137.453 42.176 136.541 42.36 135.549 42.36C134.157 42.36 132.941 41.824 131.901 40.752C130.877 39.664 130.365 38.112 130.365 36.096C130.365 34.064 130.861 32.28 131.853 30.744C132.845 29.192 134.157 28.216 135.789 27.816C135.965 27.816 136.125 27.872 136.269 27.984C136.429 28.08 136.509 28.184 136.509 28.296C134.893 29.416 133.925 30.976 133.605 32.976C133.941 32.08 134.349 31.304 134.829 30.648C135.325 29.992 135.837 29.496 136.365 29.16C137.373 28.536 138.357 28.224 139.317 28.224ZM150.001 29.976C148.961 29.976 148.033 30.68 147.217 32.088C146.401 33.48 145.993 34.872 145.993 36.264C145.993 39.176 146.745 40.632 148.249 40.632C149.321 40.632 150.193 39.936 150.865 38.544C151.537 37.136 151.873 35.56 151.873 33.816C151.873 31.256 151.249 29.976 150.001 29.976ZM151.489 28.224C152.449 28.224 153.265 28.696 153.937 29.64C154.609 30.584 154.945 31.848 154.945 33.432C154.945 35.208 154.585 36.84 153.865 38.328C153.065 40.008 151.929 41.168 150.457 41.808C149.625 42.176 148.713 42.36 147.721 42.36C146.329 42.36 145.113 41.824 144.073 40.752C143.049 39.664 142.537 38.112 142.537 36.096C142.537 34.064 143.033 32.28 144.025 30.744C145.017 29.192 146.329 28.216 147.961 27.816C148.137 27.816 148.297 27.872 148.441 27.984C148.601 28.08 148.681 28.184 148.681 28.296C147.065 29.416 146.097 30.976 145.777 32.976C146.113 32.08 146.521 31.304 147.001 30.648C147.497 29.992 148.009 29.496 148.537 29.16C149.545 28.536 150.529 28.224 151.489 28.224ZM155.55 41.4C155.358 41.08 155.238 40.776 155.19 40.488C155.142 40.184 155.118 39.72 155.118 39.096C155.118 38.472 155.382 36.016 155.91 31.728C156.454 27.44 156.726 24.496 156.726 22.896C156.726 21.296 156.63 20.256 156.438 19.776C157.638 20.096 158.454 20.584 158.886 21.24C159.334 21.88 159.558 22.792 159.558 23.976C159.558 24.68 159.326 26.968 158.862 30.84C158.398 34.712 158.166 37.832 158.166 40.2C158.166 40.712 158.198 41.432 158.262 42.36C156.806 42.296 155.902 41.976 155.55 41.4ZM164.858 29.568C164.41 29.568 164.01 29.72 163.658 30.024C163.306 30.312 163.13 30.728 163.13 31.272C163.13 31.816 163.314 32.328 163.682 32.808C164.066 33.288 164.53 33.712 165.074 34.08C165.618 34.432 166.162 34.8 166.706 35.184C167.266 35.552 167.754 36.016 168.17 36.576C168.586 37.12 168.818 37.728 168.866 38.4C168.866 39.552 168.37 40.52 167.378 41.304C166.386 42.088 165.154 42.48 163.682 42.48C162.21 42.48 161.05 42.184 160.202 41.592C159.37 41 158.954 40.32 158.954 39.552C158.954 38.784 159.186 38.168 159.65 37.704C160.13 37.224 160.722 36.984 161.426 36.984C161.794 36.984 162.138 37.048 162.458 37.176C161.946 37.72 161.69 38.296 161.69 38.904C161.69 39.512 161.858 40 162.194 40.368C162.53 40.736 162.986 40.92 163.562 40.92C164.138 40.92 164.618 40.776 165.002 40.488C165.402 40.184 165.602 39.8 165.602 39.336C165.602 38.856 165.466 38.432 165.194 38.064C164.922 37.696 164.578 37.376 164.162 37.104C163.762 36.816 163.322 36.496 162.842 36.144C162.362 35.792 161.914 35.44 161.498 35.088C161.098 34.72 160.762 34.264 160.49 33.72C160.218 33.16 160.082 32.552 160.082 31.896C160.082 30.76 160.546 29.832 161.474 29.112C162.418 28.376 163.586 28.008 164.978 28.008C166.386 28.008 167.41 28.28 168.05 28.824C168.706 29.368 169.034 30.008 169.034 30.744C169.034 31.464 168.802 32.08 168.338 32.592C167.89 33.104 167.306 33.36 166.586 33.36C166.234 33.36 165.834 33.288 165.386 33.144C165.738 32.84 166.01 32.496 166.202 32.112C166.394 31.712 166.49 31.32 166.49 30.936C166.49 30.552 166.33 30.232 166.01 29.976C165.69 29.704 165.306 29.568 164.858 29.568Z" fill="url(#paint0_linear_13_19)"/>
<path fill-rule="evenodd" clip-rule="evenodd" d="M33.3941 62.7169C51.4019 62.7169 66.0001 48.6773 66.0001 31.3585C66.0001 14.0397 51.4019 0 33.3941 0C15.3863 0 0.788147 14.0397 0.788147 31.3585C0.788147 35.003 1.43462 38.5023 2.62329 41.7561L15.4027 27.8129C16.8953 26.1843 19.4714 26.0222 21.1565 27.4507C22.8416 28.8792 22.9976 31.3575 21.505 32.9861L6.60638 49.2415C7.26826 50.1568 7.97955 51.0366 8.73655 51.8773L28.898 30.0303C30.3962 28.4068 32.9728 28.2534 34.6531 29.6877C36.3334 31.1219 36.4809 33.6007 34.9827 35.2241L14.7844 57.1111C15.7438 57.7536 16.7409 58.3478 17.7717 58.8899L28.9081 46.7393C30.4007 45.1108 32.9768 44.9486 34.6619 46.3771C36.347 47.8056 36.503 50.2839 35.0104 51.9125L25.8756 61.8792C28.2893 62.427 30.8065 62.7169 33.3941 62.7169Z" fill="url(#paint1_linear_13_19)"/>
<defs>
<linearGradient id="paint0_linear_13_19" x1="119.5" y1="14" x2="119.5" y2="52" gradientUnits="userSpaceOnUse">
<stop stop-color="#7F00A6"/>
<stop offset="1" stop-color="#3A21A0"/>
</linearGradient>
<linearGradient id="paint1_linear_13_19" x1="60.9837" y1="3.65825e-07" x2="13.0398" y2="51.9685" gradientUnits="userSpaceOnUse">
<stop offset="0.15625" stop-color="#7F00A6"/>
<stop offset="1" stop-color="#3A21A0"/>
</linearGradient>
</defs>
</svg>
